<?xml version="1.0" encoding="iso-8859-1"?>
<!-- Generator: Adobe Illustrator 16.0.0, SVG Export Plug-In . SVG Version: 6.00 Build 0)  -->
<!DOCTYPE svg PUBLIC "-//W3C//DTD SVG 1.1//EN" "http://www.w3.org/Graphics/SVG/1.1/DTD/svg11.dtd">
<svg version="1.1" id="Capa_1" xmlns="http://www.w3.org/2000/svg" xmlns:xlink="http://www.w3.org/1999/xlink" x="0px" y="0px"
	 width="51.054px" height="51.055px" viewBox="0 0 51.054 51.055" style="enable-background:new 0 0 51.054 51.055;"
	 xml:space="preserve">
<g>
	<path d="M44.242,8.227C43.164,7.062,41.982,6,40.707,5.052C36.458,1.894,31.215,0,25.527,0C19.176,0,13.375,2.346,8.902,6.198
		c-1.197,1.03-2.299,2.165-3.288,3.398c-3.504,4.372-5.613,9.905-5.613,15.93c0,6.022,2.109,11.559,5.612,15.929
		c0.988,1.232,2.091,2.37,3.289,3.4c4.472,3.853,10.274,6.199,16.625,6.199c6.837,0,13.044-2.721,17.632-7.113
		c1.143-1.096,2.179-2.295,3.104-3.585c3.001-4.185,4.79-9.298,4.79-14.829C51.052,18.849,48.455,12.781,44.242,8.227z
		 M41.123,11.822c2.748,3.123,4.572,7.067,5.056,11.416h-8.622C37.603,19.014,38.908,15.089,41.123,11.822z M32.822,23.238H27.66
		V4.859c3.684,0.381,7.082,1.724,9.943,3.776C34.642,12.763,32.871,17.794,32.822,23.238z M23.395,4.855v18.383h-5.695
		c-0.461-5.134-2.454-9.829-5.509-13.642C15.29,6.998,19.155,5.29,23.395,4.855z M8.902,13.093
		c2.171,2.896,3.603,6.367,4.024,10.146H4.878C5.299,19.46,6.731,15.988,8.902,13.093z M4.84,27.506h8.126
		c-0.374,3.896-1.832,7.479-4.063,10.452C6.672,34.983,5.214,31.401,4.84,27.506z M17.717,27.506h5.676v18.689
		c-4.238-0.436-8.104-2.143-11.203-4.74C15.306,37.568,17.311,32.76,17.717,27.506z M27.66,46.2V27.506h5.502
		c0.818,5.068,3.117,9.646,6.461,13.26C36.404,43.743,32.255,45.727,27.66,46.2z M42.744,37.168
		c-2.375-2.697-4.062-6.009-4.791-9.662h8.262C45.876,31.059,44.648,34.36,42.744,37.168z"/>
</g>
<g>
</g>
<g>
</g>
<g>
</g>
<g>
</g>
<g>
</g>
<g>
</g>
<g>
</g>
<g>
</g>
<g>
</g>
<g>
</g>
<g>
</g>
<g>
</g>
<g>
</g>
<g>
</g>
<g>
</g>
</svg>
